# xmcd
#
# Track frame offsets:
#	150
#	12535
#	26006
#	39467
#	52057
#	64996
#	78506
#	88693
#	103485
#	116023
#	133799
#	147793
#	162184
#	175892
#	188639
#	200289
#	218717
#	234400
#	248171
#	261036
#	276726
#	293956
#	307027
#	320906
#
# Disc length: 4470 seconds
#
# Revision: 0
# Processed by: cddbd v1.5.1PL2 Copyright (c) Steve Scherf et al.
# Submitted via: dBpowerAMP V4.0
#
DISCID=75117418
DTITLE=The Jackson Five - Greatest hits
DYEAR=1900
DGENRE=Soul
TTITLE0=Come round here i'm the one you need
TTITLE1=2 4 6 8
TTITLE2=Ate
TTITLE3=Chained
TTITLE4=Don't let it get you down
TTITLE5=I want you back
TTITLE6=I'm losing you
TTITLE7=Just a little bit of you
TTITLE8=Lonely teardreops
TTITLE9=Love's gone bad
TTITLE10=Make tonight all mine
TTITLE11=Melodie
TTITLE12=Never had a dream come true
TTITLE13=Nobody
TTITLE14=Stand
TTITLE15=Standing in the shadows of love
TTITLE16=That's what love is made of
TTITLE17=The love you save
TTITLE18=The young folks
TTITLE19=True love can be beatiful
TTITLE20=We're almost there
TTITLE21=Who's looking for a lover
TTITLE22=You've changed
TTITLE23=zip a dee doo dah
EXTD=
EXTT0=
EXTT1=
EXTT2=
EXTT3=
EXTT4=
EXTT5=
EXTT6=
EXTT7=
EXTT8=
EXTT9=
EXTT10=
EXTT11=
EXTT12=
EXTT13=
EXTT14=
EXTT15=
EXTT16=
EXTT17=
EXTT18=
EXTT19=
EXTT20=
EXTT21=
EXTT22=
EXTT23=
PLAYORDER=
